<?xml version="1.0" standalone="no"?>
<!DOCTYPE svg PUBLIC "-//W3C//DTD SVG 20010904//EN"
 "http://www.w3.org/TR/2001/REC-SVG-20010904/DTD/svg10.dtd">
<svg version="1.0" xmlns="http://www.w3.org/2000/svg"
 width="280.000000pt" height="253.000000pt" viewBox="0 0 280.000000 253.000000"
 preserveAspectRatio="xMidYMid meet">
<metadata>
Created by potrace 1.10, written by Peter Selinger 2001-2011
</metadata>
<g transform="translate(0.000000,253.000000) scale(0.100000,-0.100000)"
fill="#000000" stroke="none">
<path d="M1340 2410 c-11 -11 -20 -25 -20 -31 0 -6 -25 -89 -56 -186 -50 -157
-58 -175 -82 -184 -67 -24 -118 -58 -166 -110 -56 -60 -51 -49 -135 -325 -48
-159 -131 -254 -289 -333 -35 -18 -65 -38 -68 -46 -8 -20 38 -95 74 -122 38
-28 89 -49 141 -58 l43 -7 -7 -37 c-8 -46 -64 -167 -105 -226 -29 -42 -34 -75
-12 -75 5 0 26 11 47 25 20 15 40 24 43 21 8 -9 -48 -84 -115 -157 -35 -36
-63 -71 -63 -77 0 -22 28 -18 93 15 37 18 67 31 67 27 0 -12 -110 -151 -152
-191 l-43 -42 -150 -3 c-125 -3 -150 -5 -150 -18 0 -22 170 -25 1273 -22 953
2 962 2 962 22 0 19 -7 20 -204 20 l-203 0 -6 53 c-6 56 -38 158 -69 220 -26
53 -13 60 24 14 37 -46 74 -52 63 -10 -12 48 -69 156 -114 216 -24 32 -42 60
-39 62 2 2 26 -13 52 -35 26 -22 52 -37 57 -34 31 19 -19 102 -139 228 -72 75
-91 102 -105 146 -25 82 -31 182 -17 305 14 131 27 186 87 370 48 150 67 281
44 322 -14 26 -92 57 -124 49 -23 -5 -24 -11 -36 -143 -6 -76 -14 -148 -17
-160 -9 -32 -34 -29 -80 11 l-39 34 -3 165 -3 166 -47 52 c-94 104 -166 135
-212 89z m152 -88 l68 -69 0 -154 c0 -176 7 -198 79 -244 100 -62 131 -19 147
203 l7 103 26 -6 c36 -9 51 -32 51 -79 0 -52 -30 -177 -69 -286 -91 -258 -107
-563 -35 -702 9 -18 51 -68 92 -111 70 -72 81 -96 29 -63 -77 49 -96 19 -35
-56 70 -86 141 -188 135 -195 -3 -3 -18 4 -33 16 -29 23 -49 27 -59 11 -3 -5
9 -42 28 -82 48 -102 85 -208 93 -268 l7 -51 -108 3 -107 3 -214 385 c-118
211 -214 387 -214 391 0 4 20 42 45 85 49 86 52 99 31 107 -18 7 -26 -3 -65
-80 -17 -35 -35 -63 -39 -63 -4 0 -24 34 -45 75 -38 76 -46 85 -65 62 -8 -9 2
-35 38 -100 l48 -87 -216 -390 -217 -390 -149 0 -149 0 45 47 c135 145 200
317 93 247 -33 -21 -31 -10 4 35 42 52 72 115 78 161 6 46 -11 54 -42 20 -34
-38 -34 -20 0 53 33 69 60 170 50 187 -2 4 -28 10 -57 14 -69 9 -152 49 -179
88 -26 35 -30 30 72 88 84 47 181 144 219 219 16 33 46 120 66 193 20 73 45
150 55 170 30 58 86 107 166 146 44 21 78 44 84 56 4 12 34 101 64 199 54 170
58 177 82 177 19 0 45 -19 95 -68z m-118 -1327 c21 -31 22 -52 2 -36 -11 9
-20 10 -35 1 -24 -12 -27 -3 -9 35 14 31 21 31 42 0z m60 -364 c42 -178 76
-328 76 -332 0 -5 -61 -9 -136 -9 l-136 0 5 28 c7 36 97 568 103 611 3 18 7
31 9 30 2 -2 37 -150 79 -328z m-147 188 c-23 -114 -23 -114 -105 -231 l-82
-118 40 -86 c22 -48 40 -88 40 -90 0 -2 -54 -4 -120 -4 l-120 0 23 37 c13 21
94 167 182 325 87 158 160 286 162 285 1 -2 -7 -55 -20 -118z m464 -503 c20
-22 5 -26 -91 -26 -72 0 -102 4 -104 13 -6 17 -136 566 -142 597 -3 14 70
-110 161 -275 92 -165 171 -304 176 -309z m-521 169 c-11 -61 -21 -117 -23
-125 -1 -8 -15 12 -30 44 l-28 60 46 69 c26 38 48 67 50 65 2 -2 -5 -53 -15
-113z"/>
<path d="M1111 1809 c-23 -34 -40 -63 -38 -65 2 -2 19 -1 39 2 36 6 36 7 40
63 2 31 3 57 2 59 -1 2 -20 -25 -43 -59z"/>
</g>
</svg>
